<?xml version="1.0" encoding="UTF-8"?>
<!DOCTYPE svg PUBLIC "-//W3C//DTD SVG 1.1//EN" "http://www.w3.org/Graphics/SVG/1.1/DTD/svg11.dtd">
<svg version="1.1" xmlns="http://www.w3.org/2000/svg" xmlns:xlink="http://www.w3.org/1999/xlink" x="0" y="0" width="841.89" height="595.276" viewBox="0, 0, 841.89, 595.276">
  <g id="Background">
    <rect x="0" y="0" width="841.89" height="595.276" fill="#FFFFFF"/>
  </g>
  <g id="Layer_1" display="none">
    <path d="M207.441,385.5 L207.441,398.5 L220.441,398.5 L220.441,385.5 L285.441,385.5 L285.441,398.5 L311.384,398.5 L311.384,385.5 L337.384,385.5 L337.384,398.5 L350.277,398.5 L350.277,385.5 L415.277,385.5 L415.277,398.5 L428.434,398.5 L428.434,385.5 L454.434,385.5 L454.434,398.5 L480.434,398.5 L480.434,385.5 L506.434,385.5 L506.434,398.5 L519.418,398.5 L519.418,385.5 L584.418,385.5 L584.418,398.5 L597.418,398.5 L597.418,411.5 L610.481,411.5 L610.481,398.5 L623.481,398.5 L623.481,385.5 L688.481,385.5 L688.481,398.5 L701.481,398.5 L701.481,437.5 L688.481,437.5 L688.481,450.5 L701.481,450.5 L701.481,502.5 L688.481,502.5 L688.481,515.5 L610.481,515.5 L610.481,502.5 L597.418,502.5 L597.418,515.5 L519.418,515.5 L519.418,502.5 L506.418,502.5 L506.418,515.5 L480.434,515.5 L480.434,502.5 L467.434,502.5 L467.434,515.5 L428.434,515.5 L428.434,502.5 L415.434,502.5 L415.434,515.5 L350.277,515.5 L350.277,502.5 L337.277,502.5 L337.277,515.5 L311.384,515.5 L311.384,502.5 L298.384,502.5 L298.384,515.5 L272.441,515.5 L272.441,502.5 L259.441,502.5 L259.441,515.5 L220.441,515.5 L220.441,502.5 L207.441,502.5 L207.441,476.5 L181.441,476.5 L181.441,515.5 L142.441,515.5 L142.441,502.5 L129.441,502.5 L129.441,398.5 L142.441,398.5 L142.441,385.5 L207.441,385.5 z M571.418,398.5 L519.418,398.5 L519.418,489.5 L571.418,489.5 L571.418,476.5 L532.418,476.5 L532.418,411.5 L571.418,411.5 L571.418,398.5 z M402.277,398.5 L350.277,398.5 L350.277,489.5 L402.277,489.5 L402.277,476.5 L363.277,476.5 L363.277,450.5 L402.277,450.5 L402.277,437.5 L363.277,437.5 L363.277,411.5 L402.277,411.5 L402.277,398.5 z M285.441,450.5 L272.441,450.5 L272.441,489.5 L285.441,489.5 L285.441,450.5 z M272.441,398.5 L220.441,398.5 L220.441,489.5 L233.441,489.5 L233.441,450.5 L272.441,450.5 L272.441,437.5 L233.441,437.5 L233.441,411.5 L272.441,411.5 L272.441,398.5 z M194.441,398.5 L142.441,398.5 L142.441,489.5 L155.441,489.5 L155.441,450.5 L194.441,450.5 L194.441,437.5 L155.441,437.5 L155.441,411.5 L194.441,411.5 L194.441,398.5 z M324.384,398.5 L311.384,398.5 L311.384,489.5 L324.384,489.5 L324.384,398.5 z M441.434,398.5 L428.434,398.5 L428.434,489.5 L441.434,489.5 L441.434,424.5 L454.434,424.5 L454.434,411.5 L441.434,411.5 L441.434,398.5 z M493.434,398.5 L480.434,398.5 L480.434,437.5 L467.434,437.5 L467.434,450.5 L480.434,450.5 L480.434,489.5 L493.434,489.5 L493.434,398.5 z M662.481,476.5 L610.481,476.5 L610.481,489.5 L662.481,489.5 L662.481,476.5 z M584.418,411.5 L571.418,411.5 L571.418,476.5 L584.418,476.5 L584.418,411.5 z M675.481,450.5 L662.481,450.5 L662.481,476.5 L675.481,476.5 L675.481,450.5 z M610.481,476.5 M662.481,437.5 L623.481,437.5 L623.481,450.5 L662.481,450.5 L662.481,437.5 z M285.441,411.5 L272.441,411.5 L272.441,437.5 L285.441,437.5 L285.441,411.5 z M467.434,424.5 L454.434,424.5 L454.434,437.5 L467.434,437.5 L467.434,424.5 z M623.481,411.5 L610.481,411.5 L610.481,437.5 L623.481,437.5 L623.481,411.5 z M675.481,398.5 L623.481,398.5 L623.481,411.5 L675.481,411.5 L675.481,398.5 z" fill="#000000"/>
    <path d="M278.961,239.5 L278.961,252.5 L291.961,252.5 L291.961,291.5 L317.961,291.5 L317.961,252.5 L330.961,252.5 L330.961,239.5 L356.961,239.5 L356.961,252.5 L369.898,252.5 L369.898,239.5 L395.898,239.5 L395.898,252.5 L408.898,252.5 L408.898,239.5 L486.898,239.5 L486.898,252.5 L499.961,252.5 L499.961,239.5 L525.961,239.5 L525.961,252.5 L551.961,252.5 L551.961,239.5 L577.961,239.5 L577.961,252.5 L590.961,252.5 L590.961,369.5 L551.961,369.5 L551.961,356.5 L538.961,356.5 L538.961,369.5 L499.961,369.5 L499.961,356.5 L486.961,356.5 L486.961,291.5 L473.898,291.5 L473.898,369.5 L434.898,369.5 L434.898,356.5 L421.898,356.5 L421.898,291.5 L408.898,291.5 L408.898,369.5 L369.898,369.5 L369.898,356.5 L356.961,356.5 L356.961,369.5 L317.961,369.5 L317.961,356.5 L304.961,356.5 L304.961,369.5 L265.961,369.5 L265.961,356.5 L252.961,356.5 L252.961,343.5 L239.961,343.5 L239.961,252.5 L252.961,252.5 L252.961,239.5 L278.961,239.5 z M512.961,252.5 L499.961,252.5 L499.961,343.5 L512.961,343.5 L512.961,304.5 L551.961,304.5 L551.961,343.5 L564.961,343.5 L564.961,252.5 L551.961,252.5 L551.961,291.5 L512.961,291.5 L512.961,252.5 z M382.898,252.5 L369.898,252.5 L369.898,343.5 L382.898,343.5 L382.898,252.5 z M278.961,330.5 L265.961,330.5 L265.961,343.5 L278.961,343.5 L278.961,330.5 z M330.961,330.5 L317.961,330.5 L317.961,343.5 L330.961,343.5 L330.961,330.5 z M473.898,252.5 L408.898,252.5 L408.898,265.5 L434.898,265.5 L434.898,343.5 L447.898,343.5 L447.898,265.5 L473.898,265.5 L473.898,252.5 z M291.961,317.5 L278.961,317.5 L278.961,330.5 L291.961,330.5 L291.961,317.5 z M265.961,252.5 L252.961,252.5 L252.961,330.5 L265.961,330.5 L265.961,252.5 z M317.961,317.5 L304.961,317.5 L304.961,330.5 L317.961,330.5 L317.961,317.5 z M343.961,252.5 L330.961,252.5 L330.961,330.5 L343.961,330.5 L343.961,252.5 z M304.961,304.5 L291.961,304.5 L291.961,317.5 L304.961,317.5 L304.961,304.5 z" fill="#000000"/>
    <path d="M226.929,93.487 L226.929,106.487 L239.929,106.487 L239.929,93.487 L304.929,93.487 L304.929,106.487 L317.929,106.487 L317.929,119.487 L330.929,119.487 L330.929,106.487 L343.929,106.487 L343.929,93.487 L395.929,93.487 L395.929,106.487 L421.992,106.487 L421.992,93.487 L486.992,93.487 L486.992,106.487 L512.992,106.487 L512.992,93.487 L538.992,93.487 L538.992,106.487 L564.992,106.487 L564.992,93.487 L590.992,93.487 L590.992,106.643 L616.992,106.487 L616.992,93.487 L681.992,93.487 L681.992,106.487 L694.992,106.487 L694.992,145.487 L681.992,145.487 L681.992,158.487 L694.992,158.487 L694.992,210.487 L681.992,210.487 L681.992,223.487 L603.992,223.487 L603.992,210.487 L590.992,210.487 L590.992,223.487 L564.992,223.487 L564.992,210.487 L551.992,210.487 L551.992,223.487 L512.992,223.487 L512.992,210.487 L499.992,210.487 L499.992,171.237 L486.992,171.487 L486.992,184.487 L460.992,184.487 L460.992,223.487 L421.992,223.487 L421.992,210.487 L408.992,210.487 L408.992,223.487 L382.929,223.487 L382.929,210.487 L369.929,210.487 L369.929,223.487 L330.929,223.487 L330.929,210.487 L317.929,210.487 L317.929,223.487 L291.929,223.487 L291.929,210.487 L278.929,210.487 L278.929,223.487 L239.929,223.487 L239.929,210.487 L226.929,210.487 L226.929,223.487 L161.929,223.487 L161.929,210.487 L148.929,210.487 L148.929,197.487 L135.929,197.487 L135.929,119.487 L148.929,119.487 L148.929,106.487 L161.929,106.487 L161.929,93.487 L226.929,93.487 z M343.929,119.487 L330.929,119.487 L330.929,197.487 L343.929,197.487 L343.929,158.487 L382.929,158.487 L382.929,197.487 L395.929,197.487 L395.929,119.487 L382.929,119.487 L382.929,145.487 L343.929,145.487 L343.929,119.487 z M200.929,184.487 L161.929,184.487 L161.929,197.487 L200.929,197.487 L200.929,184.487 z M291.929,106.487 L239.929,106.487 L239.929,197.487 L252.929,197.487 L252.929,158.487 L291.929,158.487 L291.929,145.487 L252.929,145.487 L252.929,119.487 L291.929,119.487 L291.929,106.487 z M304.929,158.487 L291.929,158.487 L291.929,197.487 L304.929,197.487 L304.929,158.487 z M525.992,106.487 L512.992,106.487 L512.992,197.487 L525.992,197.487 L525.992,158.487 L564.992,158.487 L564.992,197.487 L577.992,197.487 L577.992,106.487 L564.992,106.487 L564.992,145.487 L525.992,145.487 L525.992,106.487 z M473.992,106.487 L421.992,106.487 L421.992,197.487 L434.992,197.487 L434.992,158.487 L473.992,158.487 L473.992,145.487 L434.992,145.487 L434.992,119.487 L473.992,119.487 L473.992,106.487 z M655.992,184.487 L603.992,184.487 L603.992,197.487 L655.992,197.487 L655.992,184.487 z M161.929,119.487 L148.929,119.487 L148.929,184.487 L161.929,184.487 L161.929,119.487 z M213.929,145.487 L187.929,145.487 L187.929,158.487 L200.929,158.487 L200.929,184.487 L213.929,184.487 L213.929,145.487 z M668.992,158.487 L655.992,158.487 L655.992,184.487 L668.992,184.487 L668.992,158.487 z M655.992,145.487 L616.992,145.487 L616.992,158.487 L655.992,158.487 L655.992,145.487 z M304.929,119.487 L291.929,119.487 L291.929,145.487 L304.929,145.487 L304.929,119.487 z M486.992,119.487 L473.992,119.487 L473.992,145.487 L486.992,145.487 L486.992,119.487 z M616.992,119.487 L603.992,119.487 L603.992,145.487 L616.992,145.487 L616.992,119.487 z M382.929,106.487 L343.929,106.487 L343.929,119.487 L382.929,119.487 L382.929,106.487 z M213.929,106.487 L161.929,106.487 L161.929,119.487 L213.929,119.487 L213.929,106.487 z M668.992,106.487 L616.992,106.487 L616.992,119.487 L668.992,119.487 L668.992,106.487 z M603.992,119.487" fill="#000000"/>
  </g>
  <g id="Layer_2">
    <path d="M161.929,106.487 L213.929,106.487 L213.929,119.487 L161.929,119.487 L161.929,106.487 z" fill="#FF0000"/>
    <path d="M239.929,106.487 L291.929,106.487 L291.929,119.487 L252.929,119.487 L252.929,145.487 L252.929,145.487 L291.929,145.487 L291.929,158.487 L252.929,158.487 L252.929,197.487 L239.929,197.487 L239.929,106.487 z" fill="#FF0000"/>
    <path d="M343.929,106.487 L382.929,106.487 L382.929,119.487 L343.929,119.487 L343.929,106.487 z" fill="#FF0000"/>
    <path d="M330.929,119.487 L343.929,119.487 L343.929,145.487 L382.929,145.487 L382.929,119.487 L395.929,119.487 L395.929,197.487 L382.929,197.487 L382.929,158.487 L343.929,158.487 L343.929,197.487 L330.929,197.487 L330.929,119.487 z" fill="#FF0000"/>
    <path d="M473.992,119.487 L486.992,119.487 L486.992,145.487 L473.992,145.487 L473.992,119.487 z" fill="#FF0000"/>
    <path d="M421.992,106.487 L473.992,106.487 L473.992,119.487 L434.992,119.487 L434.992,145.487 L473.992,145.487 L473.992,158.487 L434.992,158.487 L434.992,197.487 L421.992,197.487 L421.992,106.487 z" fill="#FF0000"/>
    <path d="M512.992,106.487 L525.992,106.487 L525.992,145.487 L564.992,145.487 L564.992,106.487 L577.992,106.487 L577.992,197.487 L564.992,197.487 L564.992,158.487 L525.992,158.487 L525.992,197.487 L512.992,197.487 L512.992,106.487 z" fill="#FF0000"/>
    <path d="M616.992,106.487 L668.992,106.487 L668.992,119.487 L616.992,119.487 L616.992,106.487 z" fill="#FF0000"/>
    <path d="M603.992,119.487 L616.992,119.487 L616.992,145.487 L603.992,145.487 L603.992,119.487 z" fill="#FF0000"/>
    <path d="M616.992,145.487 L655.992,145.487 L655.992,158.487 L616.992,158.487 L616.992,145.487 z" fill="#FF0000"/>
    <path d="M655.992,158.487 L668.992,158.487 L668.992,184.487 L655.992,184.487 L655.992,158.487 z" fill="#FF0000"/>
    <path d="M603.992,184.487 L655.992,184.487 L655.992,197.487 L603.992,197.487 L603.992,184.487 z" fill="#FF0000"/>
    <path d="M252.961,252.5 L265.961,252.5 L265.961,330.5 L252.961,330.5 L252.961,252.5 z" fill="#FF0000"/>
    <path d="M265.961,330.5 L278.961,330.5 L278.961,343.5 L265.961,343.5 L265.961,330.5 z" fill="#FF0000"/>
    <path d="M291.929,158.487 L304.929,158.487 L304.929,197.487 L291.929,197.487 L291.929,158.487 z" fill="#FF0000"/>
    <path d="M291.929,119.487 L304.929,119.487 L304.929,145.487 L291.929,145.487 L291.929,119.487 z" fill="#FF0000"/>
    <path d="M148.929,119.487 L161.929,119.487 L161.929,184.487 L148.929,184.487 L148.929,119.487 z" fill="#FF0000"/>
    <path d="M161.929,184.487 L200.929,184.487 L200.929,197.487 L161.929,197.487 L161.929,184.487 z" fill="#FF0000"/>
    <path d="M187.929,145.487 L213.929,145.487 L213.929,184.487 L200.929,184.487 L200.929,158.487 L187.929,158.487 L187.929,145.487 z" fill="#FF0000"/>
    <path d="M278.961,317.5 L291.961,317.5 L291.961,330.5 L278.961,330.5 L278.961,317.5 z" fill="#FF0000"/>
    <path d="M291.961,304.5 L304.961,304.5 L304.961,317.5 L291.961,317.5 L291.961,304.5 z" fill="#FF0000"/>
    <path d="M304.961,317.5 L317.961,317.5 L317.961,330.5 L304.961,330.5 L304.961,317.5 z" fill="#FF0000"/>
    <path d="M317.961,330.5 L330.961,330.5 L330.961,343.5 L317.961,343.5 L317.961,330.5 z" fill="#FF0000"/>
    <path d="M330.961,252.5 L343.961,252.5 L343.961,330.5 L330.961,330.5 L330.961,252.5 z" fill="#FF0000"/>
    <path d="M369.898,252.5 L382.898,252.5 L382.898,343.5 L369.898,343.5 L369.898,252.5 z" fill="#FF0000"/>
    <path d="M408.898,252.5 L473.898,252.5 L473.898,265.5 L447.898,265.5 L447.898,343.5 L434.898,343.5 L434.898,265.5 L408.898,265.5 L408.898,252.5 z" fill="#FF0000"/>
    <path d="M499.961,252.5 L512.961,252.5 L512.961,291.5 L551.961,291.5 L551.961,252.5 L564.961,252.5 L564.961,343.5 L551.961,343.5 L551.961,304.5 L512.961,304.5 L512.961,343.5 L499.961,343.5 L499.961,252.5 z" fill="#FF0000"/>
    <path d="M142.441,398.5 L194.441,398.5 L194.441,411.5 L155.441,411.5 L155.441,437.5 L194.441,437.5 L194.441,450.5 L155.441,450.5 L155.441,489.5 L142.441,489.5 L142.441,398.5 z" fill="#FF0000"/>
    <path d="M220.441,398.5 L272.441,398.5 L272.441,411.5 L233.441,411.5 L233.441,437.5 L272.441,437.5 L272.441,450.5 L233.441,450.5 L233.441,489.5 L220.441,489.5 L220.441,398.5 z" fill="#FF0000"/>
    <path d="M272.441,411.5 L285.441,411.5 L285.441,437.5 L272.441,437.5 L272.441,411.5 z" fill="#FF0000"/>
    <path d="M272.441,450.5 L285.441,450.5 L285,489.5 L272.441,489.5 L272.441,450.5 z" fill="#FF0000"/>
    <path d="M311.384,398.5 L324.384,398.5 L324.384,489.5 L311.384,489.5 L311.384,398.5 z" fill="#FF0000"/>
    <path d="M350.277,398.5 L402.277,398.5 L402.277,411.5 L363.277,411.5 L363.277,437.5 L402.277,437.5 L402.277,450.5 L363.277,450.5 L363.277,476.5 L402.277,476.5 L402.277,489.5 L350.277,489.5 L350.277,398.5 z" fill="#FF0000"/>
    <path d="M428.434,398.5 L441.434,398.5 L441.434,411.5 L454.434,411.5 L454.434,424.5 L441.434,424.5 L441.434,489.5 L428.434,489.5 L428.434,398.5 z" fill="#FF0000"/>
    <path d="M454.434,424.5 L467.434,424.5 L467.434,437.5 L454.434,437.5 L454.434,424.5 z" fill="#FF0000"/>
    <path d="M480.434,398.5 L493.434,398.5 L493.434,489.5 L480.434,489.5 L480.434,450.5 L467.434,450.5 L467.434,437.5 L480.434,437.5 L480.434,398.5 z" fill="#FF0000"/>
    <path d="M519.418,398.5 L571.418,398.5 L571.418,411.5 L532.418,411.5 L532.418,476.5 L571.418,476.5 L571.418,489.5 L519.418,489.5 L519.418,398.5 z" fill="#FF0000"/>
    <path d="M571.418,411.5 L584.418,411.5 L584.418,476.5 L571.418,476.5 L571.418,411.5 z" fill="#FF0000"/>
    <path d="M623.481,398.5 L675.481,398.5 L675.481,411.5 L623.481,411.5 L623.481,398.5 z" fill="#FF0000"/>
    <path d="M610.481,411.5 L623.481,411.5 L623.481,437.5 L610.481,437.5 L610.481,411.5 z" fill="#FF0000"/>
    <path d="M623.481,437.5 L662.481,437.5 L662.481,450.5 L623.481,450.5 L623.481,437.5 z" fill="#FF0000"/>
    <path d="M662.481,450.5 L675.481,450.5 L675.481,476.5 L662.481,476.5 L662.481,450.5 z" fill="#FF0000"/>
    <path d="M610.481,476.5 L662.481,476.5 L662.481,489.5 L610.481,489.5 L610.481,476.5 z" fill="#FF0000"/>
  </g>
</svg>
