<?xml version="1.0" encoding="UTF-8"?>
<!DOCTYPE svg PUBLIC "-//W3C//DTD SVG 1.1//EN" "http://www.w3.org/Graphics/SVG/1.1/DTD/svg11.dtd">
<svg version="1.1" xmlns="http://www.w3.org/2000/svg" xmlns:xlink="http://www.w3.org/1999/xlink" x="0" y="0" width="572.031" height="421.795" viewBox="0, 0, 572.031, 421.795">
  <g id="Layer_2">
    <path d="M32.489,13 L84.489,13 L84.489,26 L32.489,26 L32.489,13 z" fill="#FFFFFF"/>
    <path d="M110.489,13 L162.489,13 L162.489,26 L123.489,26 L123.489,52 L123.489,52 L162.489,52 L162.489,65 L123.489,65 L123.489,104 L110.489,104 L110.489,13 z" fill="#FFFFFF"/>
    <path d="M214.489,13 L253.489,13 L253.489,26 L214.489,26 L214.489,13 z" fill="#FFFFFF"/>
    <path d="M201.489,26 L214.489,26 L214.489,52 L253.489,52 L253.489,26 L266.489,26 L266.489,104 L253.489,104 L253.489,65 L214.489,65 L214.489,104 L201.489,104 L201.489,26 z" fill="#FFFFFF"/>
    <path d="M344.551,26 L357.551,26 L357.551,52 L344.551,52 L344.551,26 z" fill="#FFFFFF"/>
    <path d="M292.551,13 L344.551,13 L344.551,26 L305.551,26 L305.551,52 L344.551,52 L344.551,65 L305.551,65 L305.551,104 L292.551,104 L292.551,13 z" fill="#FFFFFF"/>
    <path d="M383.551,13 L396.551,13 L396.551,52 L435.551,52 L435.551,13 L448.551,13 L448.551,104 L435.551,104 L435.551,65 L396.551,65 L396.551,104 L383.551,104 L383.551,13 z" fill="#FFFFFF"/>
    <path d="M487.551,13 L539.551,13 L539.551,26 L487.551,26 L487.551,13 z" fill="#FFFFFF"/>
    <path d="M474.551,26 L487.551,26 L487.551,52 L474.551,52 L474.551,26 z" fill="#FFFFFF"/>
    <path d="M487.551,52 L526.551,52 L526.551,65 L487.551,65 L487.551,52 z" fill="#FFFFFF"/>
    <path d="M526.551,65 L539.551,65 L539.551,91 L526.551,91 L526.551,65 z" fill="#FFFFFF"/>
    <path d="M474.551,91 L526.551,91 L526.551,104 L474.551,104 L474.551,91 z" fill="#FFFFFF"/>
    <path d="M123.52,159.014 L136.52,159.014 L136.52,237.014 L123.52,237.014 L123.52,159.014 z" fill="#FFFFFF"/>
    <path d="M136.52,237.014 L149.52,237.014 L149.52,250.014 L136.52,250.014 L136.52,237.014 z" fill="#FFFFFF"/>
    <path d="M162.489,65 L175.489,65 L175.489,104 L162.489,104 L162.489,65 z" fill="#FFFFFF"/>
    <path d="M162.489,26 L175.489,26 L175.489,52 L162.489,52 L162.489,26 z" fill="#FFFFFF"/>
    <path d="M19.489,26 L32.489,26 L32.489,91 L19.489,91 L19.489,26 z" fill="#FFFFFF"/>
    <path d="M32.489,91 L71.489,91 L71.489,104 L32.489,104 L32.489,91 z" fill="#FFFFFF"/>
    <path d="M58.489,52 L84.489,52 L84.489,91 L71.489,91 L71.489,65 L58.489,65 L58.489,52 z" fill="#FFFFFF"/>
    <path d="M149.52,224.014 L162.52,224.014 L162.52,237.014 L149.52,237.014 L149.52,224.014 z" fill="#FFFFFF"/>
    <path d="M162.52,211.014 L175.52,211.014 L175.52,224.014 L162.52,224.014 L162.52,211.014 z" fill="#FFFFFF"/>
    <path d="M175.52,224.014 L188.52,224.014 L188.52,237.014 L175.52,237.014 L175.52,224.014 z" fill="#FFFFFF"/>
    <path d="M188.52,237.014 L201.52,237.014 L201.52,250.014 L188.52,250.014 L188.52,237.014 z" fill="#FFFFFF"/>
    <path d="M201.52,159.014 L214.52,159.014 L214.52,237.014 L201.52,237.014 L201.52,159.014 z" fill="#FFFFFF"/>
    <path d="M240.457,159.014 L253.457,159.014 L253.457,250.014 L240.457,250.014 L240.457,159.014 z" fill="#FFFFFF"/>
    <path d="M279.457,159.014 L344.457,159.014 L344.457,172.014 L318.457,172.014 L318.457,250.014 L305.457,250.014 L305.457,172.014 L279.457,172.014 L279.457,159.014 z" fill="#FFFFFF"/>
    <path d="M370.52,159.014 L383.52,159.014 L383.52,198.014 L422.52,198.014 L422.52,159.014 L435.52,159.014 L435.52,250.014 L422.52,250.014 L422.52,211.014 L383.52,211.014 L383.52,250.014 L370.52,250.014 L370.52,159.014 z" fill="#FFFFFF"/>
    <path d="M13,305.014 L65,305.014 L65,318.014 L26,318.014 L26,344.014 L65,344.014 L65,357.014 L26,357.014 L26,396.014 L13,396.014 L13,305.014 z" fill="#FFFFFF"/>
    <path d="M91,305.014 L143,305.014 L143,318.014 L104,318.014 L104,344.014 L143,344.014 L143,357.014 L104,357.014 L104,396.014 L91,396.014 L91,305.014 z" fill="#FFFFFF"/>
    <path d="M143,318.014 L156,318.014 L156,344.014 L143,344.014 L143,318.014 z" fill="#FFFFFF"/>
    <path d="M143,357.014 L156,357.014 L155.559,396.014 L143,396.014 L143,357.014 z" fill="#FFFFFF"/>
    <path d="M181.943,305.014 L194.943,305.014 L194.943,396.014 L181.943,396.014 L181.943,305.014 z" fill="#FFFFFF"/>
    <path d="M220.837,305.014 L272.837,305.014 L272.837,318.014 L233.837,318.014 L233.837,344.014 L272.837,344.014 L272.837,357.014 L233.837,357.014 L233.837,383.014 L272.837,383.014 L272.837,396.014 L220.837,396.014 L220.837,305.014 z" fill="#FFFFFF"/>
    <path d="M298.993,305.014 L311.993,305.014 L311.993,318.014 L324.993,318.014 L324.993,331.014 L311.993,331.014 L311.993,396.014 L298.993,396.014 L298.993,305.014 z" fill="#FFFFFF"/>
    <path d="M324.993,331.014 L337.993,331.014 L337.993,344.014 L324.993,344.014 L324.993,331.014 z" fill="#FFFFFF"/>
    <path d="M350.993,305.014 L363.993,305.014 L363.993,396.014 L350.993,396.014 L350.993,357.014 L337.993,357.014 L337.993,344.014 L350.993,344.014 L350.993,305.014 z" fill="#FFFFFF"/>
    <path d="M389.977,305.014 L441.977,305.014 L441.977,318.014 L402.977,318.014 L402.977,383.014 L441.977,383.014 L441.977,396.014 L389.977,396.014 L389.977,305.014 z" fill="#FFFFFF"/>
    <path d="M441.977,318.014 L454.977,318.014 L454.977,383.014 L441.977,383.014 L441.977,318.014 z" fill="#FFFFFF"/>
    <path d="M494.04,305.014 L546.04,305.014 L546.04,318.014 L494.04,318.014 L494.04,305.014 z" fill="#FFFFFF"/>
    <path d="M481.04,318.014 L494.04,318.014 L494.04,344.014 L481.04,344.014 L481.04,318.014 z" fill="#FFFFFF"/>
    <path d="M494.04,344.014 L533.04,344.014 L533.04,357.014 L494.04,357.014 L494.04,344.014 z" fill="#FFFFFF"/>
    <path d="M533.04,357.014 L546.04,357.014 L546.04,383.014 L533.04,383.014 L533.04,357.014 z" fill="#FFFFFF"/>
    <path d="M481.04,383.014 L533.04,383.014 L533.04,396.014 L481.04,396.014 L481.04,383.014 z" fill="#FFFFFF"/>
  </g>
</svg>
