<?xml version="1.0" encoding="UTF-8"?>
<!DOCTYPE svg PUBLIC "-//W3C//DTD SVG 1.1//EN" "http://www.w3.org/Graphics/SVG/1.1/DTD/svg11.dtd">
<svg version="1.1" xmlns="http://www.w3.org/2000/svg" xmlns:xlink="http://www.w3.org/1999/xlink" x="0" y="0" width="572.031" height="421.795" viewBox="0, 0, 572.031, 421.795">
  <g id="Layer_1">
    <path d="M78,292.014 L78,305.014 L91,305.014 L91,292.014 L156,292.014 L156,305.014 L181.943,305.014 L181.943,292.014 L207.943,292.014 L207.943,305.014 L220.837,305.014 L220.837,292.014 L285.837,292.014 L285.837,305.014 L298.993,305.014 L298.993,292.014 L324.993,292.014 L324.993,305.014 L350.993,305.014 L350.993,292.014 L376.993,292.014 L376.993,305.014 L389.977,305.014 L389.977,292.014 L454.977,292.014 L454.977,305.014 L467.977,305.014 L467.977,318.014 L481.04,318.014 L481.04,305.014 L494.04,305.014 L494.04,292.014 L559.04,292.014 L559.04,305.014 L572.04,305.014 L572.04,344.014 L559.04,344.014 L559.04,357.014 L572.04,357.014 L572.04,409.013 L559.04,409.013 L559.04,422.013 L481.04,422.013 L481.04,409.013 L467.977,409.013 L467.977,422.013 L389.977,422.013 L389.977,409.013 L376.977,409.013 L376.977,422.013 L350.993,422.013 L350.993,409.013 L337.993,409.013 L337.993,422.013 L298.993,422.013 L298.993,409.013 L285.993,409.013 L285.993,422.013 L220.837,422.013 L220.837,409.013 L207.837,409.013 L207.837,422.013 L181.943,422.013 L181.943,409.013 L168.943,409.013 L168.943,422.013 L143,422.013 L143,409.013 L130,409.013 L130,422.013 L91,422.013 L91,409.013 L78,409.013 L78,383.014 L52,383.014 L52,422.013 L13,422.013 L13,409.013 L-0,409.013 L-0,305.014 L13,305.014 L13,292.014 L78,292.014 z M441.977,305.014 L389.977,305.014 L389.977,396.014 L441.977,396.014 L441.977,383.014 L402.977,383.014 L402.977,318.014 L441.977,318.014 L441.977,305.014 z M272.837,305.014 L220.837,305.014 L220.837,396.014 L272.837,396.014 L272.837,383.014 L233.837,383.014 L233.837,357.014 L272.837,357.014 L272.837,344.014 L233.837,344.014 L233.837,318.014 L272.837,318.014 L272.837,305.014 z M156,357.014 L143,357.014 L143,396.014 L156,396.014 L156,357.014 z M143,305.014 L91,305.014 L91,396.014 L104,396.014 L104,357.014 L143,357.014 L143,344.014 L104,344.014 L104,318.014 L143,318.014 L143,305.014 z M65,305.014 L13,305.014 L13,396.014 L26,396.014 L26,357.014 L65,357.014 L65,344.014 L26,344.014 L26,318.014 L65,318.014 L65,305.014 z M194.943,305.014 L181.943,305.014 L181.943,396.014 L194.943,396.014 L194.943,305.014 z M311.993,305.014 L298.993,305.014 L298.993,396.014 L311.993,396.014 L311.993,331.014 L324.993,331.014 L324.993,318.014 L311.993,318.014 L311.993,305.014 z M363.993,305.014 L350.993,305.014 L350.993,344.014 L337.993,344.014 L337.993,357.014 L350.993,357.014 L350.993,396.014 L363.993,396.014 L363.993,305.014 z M533.04,383.014 L481.04,383.014 L481.04,396.014 L533.04,396.014 L533.04,383.014 z M454.977,318.014 L441.977,318.014 L441.977,383.014 L454.977,383.014 L454.977,318.014 z M546.04,357.014 L533.04,357.014 L533.04,383.014 L546.04,383.014 L546.04,357.014 z M481.04,383.014 M533.04,344.014 L494.04,344.014 L494.04,357.014 L533.04,357.014 L533.04,344.014 z M156,318.014 L143,318.014 L143,344.014 L156,344.014 L156,318.014 z M337.993,331.014 L324.993,331.014 L324.993,344.014 L337.993,344.014 L337.993,331.014 z M494.04,318.014 L481.04,318.014 L481.04,344.014 L494.04,344.014 L494.04,318.014 z M546.04,305.014 L494.04,305.014 L494.04,318.014 L546.04,318.014 L546.04,305.014 z" fill="#333333"/>
    <path d="M149.52,146.014 L149.52,159.014 L162.52,159.014 L162.52,198.014 L188.52,198.014 L188.52,159.014 L201.52,159.014 L201.52,146.014 L227.52,146.014 L227.52,159.014 L240.457,159.014 L240.457,146.014 L266.457,146.014 L266.457,159.014 L279.457,159.014 L279.457,146.014 L357.457,146.014 L357.457,159.014 L370.52,159.014 L370.52,146.014 L396.52,146.014 L396.52,159.014 L422.52,159.014 L422.52,146.014 L448.52,146.014 L448.52,159.014 L461.52,159.014 L461.52,276.014 L422.52,276.014 L422.52,263.014 L409.52,263.014 L409.52,276.014 L370.52,276.014 L370.52,263.014 L357.52,263.014 L357.52,198.014 L344.457,198.014 L344.457,276.014 L305.457,276.014 L305.457,263.014 L292.457,263.014 L292.457,198.014 L279.457,198.014 L279.457,276.014 L240.457,276.014 L240.457,263.014 L227.52,263.014 L227.52,276.014 L188.52,276.014 L188.52,263.014 L175.52,263.014 L175.52,276.014 L136.52,276.014 L136.52,263.014 L123.52,263.014 L123.52,250.014 L110.52,250.014 L110.52,159.014 L123.52,159.014 L123.52,146.014 L149.52,146.014 z M383.52,159.014 L370.52,159.014 L370.52,250.014 L383.52,250.014 L383.52,211.014 L422.52,211.014 L422.52,250.014 L435.52,250.014 L435.52,159.014 L422.52,159.014 L422.52,198.014 L383.52,198.014 L383.52,159.014 z M253.457,159.014 L240.457,159.014 L240.457,250.014 L253.457,250.014 L253.457,159.014 z M149.52,237.014 L136.52,237.014 L136.52,250.014 L149.52,250.014 L149.52,237.014 z M201.52,237.014 L188.52,237.014 L188.52,250.014 L201.52,250.014 L201.52,237.014 z M344.457,159.014 L279.457,159.014 L279.457,172.014 L305.457,172.014 L305.457,250.014 L318.457,250.014 L318.457,172.014 L344.457,172.014 L344.457,159.014 z M162.52,224.014 L149.52,224.014 L149.52,237.014 L162.52,237.014 L162.52,224.014 z M136.52,159.014 L123.52,159.014 L123.52,237.014 L136.52,237.014 L136.52,159.014 z M188.52,224.014 L175.52,224.014 L175.52,237.014 L188.52,237.014 L188.52,224.014 z M214.52,159.014 L201.52,159.014 L201.52,237.014 L214.52,237.014 L214.52,159.014 z M175.52,211.014 L162.52,211.014 L162.52,224.014 L175.52,224.014 L175.52,211.014 z" fill="#333333"/>
    <path d="M97.489,0 L97.489,13 L110.489,13 L110.489,0 L175.489,0 L175.489,13 L188.489,13 L188.489,26 L201.489,26 L201.489,13 L214.489,13 L214.489,0 L266.489,0 L266.489,13 L292.551,13 L292.551,0 L357.551,0 L357.551,13 L383.551,13 L383.551,0 L409.551,0 L409.551,13 L435.551,13 L435.551,0 L461.551,0 L461.551,13.156 L487.551,13 L487.551,0 L552.551,0 L552.551,13 L565.551,13 L565.551,52 L552.551,52 L552.551,65 L565.551,65 L565.551,117 L552.551,117 L552.551,130 L474.551,130 L474.551,117 L461.551,117 L461.551,130 L435.551,130 L435.551,117 L422.551,117 L422.551,130 L383.551,130 L383.551,117 L370.551,117 L370.551,77.75 L357.551,78 L357.551,91 L331.551,91 L331.551,130 L292.551,130 L292.551,117 L279.551,117 L279.551,130 L253.489,130 L253.489,117 L240.489,117 L240.489,130 L201.489,130 L201.489,117 L188.489,117 L188.489,130 L162.489,130 L162.489,117 L149.489,117 L149.489,130 L110.489,130 L110.489,117 L97.489,117 L97.489,130 L32.489,130 L32.489,117 L19.489,117 L19.489,104 L6.489,104 L6.489,26 L19.489,26 L19.489,13 L32.489,13 L32.489,0 L97.489,0 z M214.489,26 L201.489,26 L201.489,104 L214.489,104 L214.489,65 L253.489,65 L253.489,104 L266.489,104 L266.489,26 L253.489,26 L253.489,52 L214.489,52 L214.489,26 z M71.489,91 L32.489,91 L32.489,104 L71.489,104 L71.489,91 z M162.489,13 L110.489,13 L110.489,104 L123.489,104 L123.489,65 L162.489,65 L162.489,52 L123.489,52 L123.489,26 L162.489,26 L162.489,13 z M175.489,65 L162.489,65 L162.489,104 L175.489,104 L175.489,65 z M396.551,13 L383.551,13 L383.551,104 L396.551,104 L396.551,65 L435.551,65 L435.551,104 L448.551,104 L448.551,13 L435.551,13 L435.551,52 L396.551,52 L396.551,13 z M344.551,13 L292.551,13 L292.551,104 L305.551,104 L305.551,65 L344.551,65 L344.551,52 L305.551,52 L305.551,26 L344.551,26 L344.551,13 z M526.551,91 L474.551,91 L474.551,104 L526.551,104 L526.551,91 z M32.489,26 L19.489,26 L19.489,91 L32.489,91 L32.489,26 z M84.489,52 L58.489,52 L58.489,65 L71.489,65 L71.489,91 L84.489,91 L84.489,52 z M539.551,65 L526.551,65 L526.551,91 L539.551,91 L539.551,65 z M526.551,52 L487.551,52 L487.551,65 L526.551,65 L526.551,52 z M175.489,26 L162.489,26 L162.489,52 L175.489,52 L175.489,26 z M357.551,26 L344.551,26 L344.551,52 L357.551,52 L357.551,26 z M487.551,26 L474.551,26 L474.551,52 L487.551,52 L487.551,26 z M253.489,13 L214.489,13 L214.489,26 L253.489,26 L253.489,13 z M84.489,13 L32.489,13 L32.489,26 L84.489,26 L84.489,13 z M539.551,13 L487.551,13 L487.551,26 L539.551,26 L539.551,13 z M474.551,26" fill="#333333"/>
  </g>
</svg>
